<svg xmlns="http://www.w3.org/2000/svg"  viewBox="0 0 50 50" width="50px" height="50px"><path fill="#ff9600" d="M43.752,36.217c-0.062-0.196-0.139-0.393-0.232-0.594c-0.599-1.294-1.41-2.481-2.041-3.759 c-1.381-2.797-1.012-5.984-1.44-8.998c-0.41-2.883-1.163-5.768-2.412-8.406c-1.116-2.358-2.816-4.559-5.196-5.736 c-1.378-0.681-2.898-1.136-4.455-1.381c0-0.005,0.001-0.009,0-0.014C27.871,6.039,27.3,4.854,26.25,4.077 c-0.927-0.687-2.27-0.901-3.353-0.482c-1.186,0.459-2.006,1.543-2.218,2.79c-0.068,0.398-0.078,0.792-0.047,1.18 c-1.932,0.543-3.728,1.589-5.154,3.009c-2.477,2.466-3.705,5.738-4.124,9.155c-0.429,3.497-0.095,7.095-1.063,10.518 c-0.456,1.611-1.247,2.947-2.294,4.238c-0.946,1.165-2.11,2.606-1.988,4.213c0.117,1.545,1.401,2.04,2.764,2.145 c0.197,0.032,0.393,0.059,0.582,0.088c1.393,0.216,2.798,0.332,4.207,0.375c1.327,0.041,2.654,0.028,3.981-0.009 c0.293,2.215,1.479,4.347,3.494,5.32c3.214,1.552,7.358-0.339,9.054-3.268c0.482-0.832,0.791-1.739,0.937-2.672 c0.035-0.001,0.07-0.003,0.105-0.004c2.939-0.073,5.871,0.017,8.808,0.007c0.876-0.003,1.788-0.123,2.553-0.516 c0.07-0.024,0.135-0.072,0.203-0.119c0.343-0.208,0.654-0.471,0.906-0.822C44.247,38.321,44.347,37.123,43.752,36.217z"/><path fill="#ff9600" d="M24.758,5.551c-0.001,0-0.002,0-0.002-0.001c0.064,0.038,0.085,0.047,0.082,0.042 C24.811,5.579,24.784,5.566,24.758,5.551z"/><path fill="#231f20" d="M21.051,7.967c0.92-0.503,2.091-0.604,3.122-0.628c1.109-0.026,2.202,0.115,3.271,0.409 c0.621,0.171,0.886-0.793,0.266-0.964c-1.19-0.328-2.43-0.484-3.664-0.441c-1.174,0.041-2.454,0.189-3.499,0.761 C19.982,7.412,20.486,8.276,21.051,7.967L21.051,7.967z"/><path fill="#231f20" d="M17.789,41.307c2.177-0.119,4.355-0.237,6.532-0.356c2.139-0.116,4.268-0.239,6.401,0.035 c0.637,0.082,0.631-0.919,0-1c-2.133-0.273-4.262-0.151-6.401-0.035c-2.177,0.119-4.355,0.237-6.532,0.356 C17.149,40.342,17.145,41.343,17.789,41.307L17.789,41.307z"/><path fill="#fff" d="M20.751,9.895c-1.631,0.602-3.123,1.567-4.254,2.899c-0.561,0.661-1.063,1.375-1.432,2.161 c-0.445,0.946-0.743,1.935-1.017,2.941c-0.206,0.756,0.256,1.665,1.048,1.845c0.791,0.18,1.625-0.237,1.845-1.048 c0.116-0.426,0.231-0.853,0.365-1.274c0.067-0.21,0.137-0.419,0.215-0.626c0.013-0.034,0.146-0.366,0.072-0.19 c-0.07,0.166,0.048-0.104,0.063-0.135c0.15-0.318,0.32-0.627,0.509-0.924c0.095-0.149,0.196-0.292,0.297-0.436 c0.161-0.228-0.129,0.152-0.011,0.01c0.056-0.068,0.11-0.137,0.167-0.204c0.228-0.268,0.472-0.523,0.73-0.762 c0.129-0.12,0.264-0.233,0.398-0.346c0.149-0.126,0.025,0.006-0.055,0.039c0.068-0.028,0.15-0.112,0.213-0.156 c0.287-0.204,0.586-0.39,0.895-0.557c0.155-0.083,0.312-0.162,0.472-0.236c0.194-0.089,0.108-0.088-0.019,0.004 c0.077-0.056,0.208-0.081,0.296-0.114c0.734-0.271,1.312-1.029,1.048-1.845C22.363,10.223,21.539,9.604,20.751,9.895L20.751,9.895 z"/><path fill="#99c93c" d="M38.093,8.327c0.491-0.573,0.981-1.147,1.472-1.72c0.175-0.205,0.293-0.43,0.293-0.707 c0-0.245-0.109-0.538-0.293-0.707c-0.191-0.175-0.441-0.305-0.707-0.293c-0.253,0.011-0.536,0.093-0.707,0.293 c-0.491,0.573-0.981,1.147-1.472,1.72c-0.175,0.205-0.293,0.43-0.293,0.707c0,0.245,0.109,0.538,0.293,0.707 c0.191,0.175,0.441,0.305,0.707,0.293C37.639,8.609,37.922,8.527,38.093,8.327L38.093,8.327z"/><path fill="#99c93c" d="M39.885,12.033c1.125-0.449,2.23-0.945,3.306-1.5c0.466-0.24,0.641-0.931,0.359-1.368 c-0.306-0.475-0.87-0.616-1.368-0.359c-0.789,0.407-1.593,0.784-2.41,1.13c0.08-0.034,0.159-0.067,0.239-0.101 c-0.218,0.092-0.437,0.182-0.657,0.269c-0.251,0.1-0.456,0.218-0.598,0.46c-0.125,0.214-0.179,0.53-0.101,0.771 c0.078,0.242,0.228,0.475,0.46,0.598C39.337,12.05,39.64,12.13,39.885,12.033L39.885,12.033z"/><path fill="#99c93c" d="M41.215,16.13c0.762,0.095,1.528,0.147,2.295,0.155c0.255,0.003,0.528-0.114,0.707-0.293 c0.173-0.173,0.304-0.458,0.293-0.707c-0.025-0.547-0.439-0.993-1-1c-0.768-0.009-1.534-0.061-2.295-0.155 c-0.236-0.029-0.547,0.133-0.707,0.293c-0.173,0.173-0.304,0.458-0.293,0.707c0.012,0.259,0.097,0.527,0.293,0.707 c0.067,0.052,0.135,0.104,0.202,0.156C40.866,16.084,41.035,16.129,41.215,16.13L41.215,16.13z"/><path fill="#df4bb1" d="M4.432,16.14c0.806,0.14,1.622,0.227,2.441,0.239c0.254,0.004,0.528-0.114,0.707-0.293 c0.173-0.173,0.304-0.458,0.293-0.707c-0.025-0.549-0.439-0.992-1-1c-0.547-0.008-1.093-0.048-1.635-0.12 c0.089,0.012,0.177,0.024,0.266,0.036c-0.181-0.024-0.361-0.052-0.54-0.083c-0.271-0.047-0.525-0.043-0.771,0.101 c-0.207,0.121-0.405,0.359-0.46,0.598c-0.058,0.256-0.046,0.543,0.101,0.771C3.967,15.887,4.179,16.096,4.432,16.14L4.432,16.14z"/><path fill="#df4bb1" d="M5.471,11.543c0.844,0.297,1.688,0.594,2.532,0.89c0.235,0.083,0.562,0.021,0.771-0.101 c0.207-0.121,0.405-0.359,0.46-0.598c0.058-0.256,0.046-0.543-0.101-0.771c-0.147-0.228-0.341-0.369-0.598-0.46 c-0.844-0.297-1.688-0.594-2.532-0.89C5.768,9.532,5.441,9.593,5.232,9.715c-0.207,0.121-0.405,0.359-0.46,0.598 c-0.058,0.256-0.046,0.543,0.101,0.771C5.02,11.311,5.215,11.453,5.471,11.543L5.471,11.543z"/><g><path fill="#df4bb1" d="M8.302,6.374c0.651,0.755,1.303,1.509,1.954,2.264c0.16,0.186,0.47,0.293,0.707,0.293 c0.245,0,0.538-0.109,0.707-0.293c0.175-0.191,0.305-0.441,0.293-0.707c-0.012-0.276-0.112-0.497-0.293-0.707 c-0.651-0.755-1.303-1.509-1.954-2.264c-0.16-0.186-0.47-0.293-0.707-0.293c-0.245,0-0.538,0.109-0.707,0.293 C8.127,5.151,7.997,5.401,8.009,5.667C8.021,5.943,8.121,6.165,8.302,6.374L8.302,6.374z"/></g></svg>